# xmcd
#
# Track frame offsets:
# 150
# 14953
# 26848
# 37868
# 51710
# 59950
# 74278
# 87290
# 102165
# 113668
#
# Disc length: 1707 seconds
#
#
# Revision: 0
# Processed by: cddbd v1.5.2PL0 Copyright (c) Steve Scherf et al.
# Submitted via: FreeRIP 2.945 
#
DISCID=9206a90a
DTITLE=Fernando Valades - Sus Grandes Exitos
DYEAR=1900
DGENRE=
TTITLE0=Asomate a mi alma
TTITLE1=Pero como de que no
TTITLE2=Aunque tengas que llorar
TTITLE3=Tu sabras si te vas
TTITLE4=Aquella tonadita
TTITLE5=Po que no he de llorar
TTITLE6=Nada mas una noche te pido
TTITLE7=regalo del cielo
TTITLE8=Lo demas es lo de menos
TTITLE9=Si volvieras a vivir
EXTD=
EXTT0=
EXTT1=
EXTT2=
EXTT3=
EXTT4=
EXTT5=
EXTT6=
EXTT7=
EXTT8=
EXTT9=
PLAYORDER=
